<svg width="16" height="16" viewBox="0 0 16 16" fill="none" xmlns="http://www.w3.org/2000/svg">
<g clip-path="url(#clip0)">
<path d="M1.35063 4.45192C1.71922 4.04979 2.10547 3.68789 2.53075 3.35195C2.58075 3.31245 2.65275 3.35973 2.63603 3.42123C2.39766 4.29739 1.98116 5.16323 1.33913 5.80691C1.31028 5.35629 1.30985 4.90191 1.35063 4.45192Z" fill="#FFB125"/>
<path d="M1.33919 5.80726C0.968503 5.35992 0.649973 4.89742 0.362942 4.39811C0.33013 4.34101 0.242818 4.36139 0.239505 4.42717C0.187724 5.45001 0.578535 6.64679 1.53066 7.12947C1.43575 6.6945 1.36738 6.25185 1.33919 5.80726Z" fill="#FFB125"/>
<path d="M1.53058 7.12913C1.76386 6.64913 2.02498 6.20254 2.33108 5.76967C2.36739 5.71829 2.44882 5.74185 2.45145 5.8047C2.48873 6.68823 2.33714 7.62222 1.9138 8.39784C1.75689 7.985 1.62448 7.56094 1.53058 7.12913Z" fill="#FFB125"/>
<path d="M1.91386 8.39812C1.43252 8.08878 0.99283 7.75053 0.571051 7.3706C0.522394 7.32678 0.446082 7.37253 0.462551 7.43591C0.716644 8.41287 1.44327 9.41543 2.47776 9.59253C2.26273 9.2085 2.07011 8.8099 1.91386 8.39812Z" fill="#FFB125"/>
<path d="M2.47766 9.59224C2.56197 9.06859 2.6826 8.56903 2.85047 8.06963C2.87044 8.01022 2.95478 8.00909 2.97569 8.06816C3.26928 8.89706 3.38825 9.83224 3.2111 10.6917C2.94182 10.3432 2.69269 9.9769 2.47766 9.59224Z" fill="#FFB125"/>
<path d="M3.21128 10.692C2.66259 10.5365 2.14422 10.3421 1.63085 10.1038C1.57153 10.0763 1.5121 10.1423 1.54628 10.198C2.07413 11.0588 3.06234 11.8041 4.10318 11.6756C3.78368 11.3695 3.48178 11.0425 3.21128 10.692Z" fill="#FFB125"/>
<path d="M4.10297 11.6754C4.0281 11.1478 3.99632 10.6332 4.011 10.1042C4.01275 10.0416 4.09319 10.0158 4.13041 10.0663C4.65612 10.7791 5.04831 11.6449 5.14219 12.5226C4.77659 12.2658 4.42559 11.985 4.10297 11.6754Z" fill="#FFB125"/>
<path d="M14.6493 4.45192C14.2807 4.04979 13.8944 3.68789 13.4691 3.35195C13.4191 3.31245 13.3471 3.35973 13.3639 3.42123C13.6022 4.29739 14.0187 5.16323 14.6608 5.80691C14.6896 5.35629 14.6901 4.90191 14.6493 4.45192Z" fill="#FFB125"/>
<path d="M14.6608 5.80726C15.0315 5.35992 15.35 4.89742 15.637 4.39811C15.6698 4.34101 15.7571 4.36139 15.7605 4.42717C15.8122 5.45001 15.4214 6.64679 14.4693 7.12947C14.5642 6.6945 14.6325 6.25185 14.6608 5.80726Z" fill="#FFB125"/>
<path d="M14.4693 7.12913C14.2361 6.64913 13.9749 6.20254 13.6688 5.76967C13.6325 5.71829 13.5511 5.74185 13.5485 5.8047C13.5112 6.68823 13.6628 7.62222 14.0861 8.39784C14.2431 7.985 14.3754 7.56094 14.4693 7.12913Z" fill="#FFB125"/>
<path d="M14.0861 8.39812C14.5674 8.08878 15.0071 7.75053 15.4289 7.3706C15.4775 7.32678 15.5538 7.37253 15.5374 7.43591C15.2833 8.41287 14.5567 9.41543 13.5222 9.59253C13.7372 9.2085 13.9298 8.8099 14.0861 8.39812Z" fill="#FFB125"/>
<path d="M13.5223 9.59224C13.438 9.06859 13.3174 8.56903 13.1495 8.06963C13.1295 8.01022 13.0452 8.00909 13.0243 8.06816C12.7307 8.89706 12.6117 9.83224 12.7889 10.6917C13.0581 10.3432 13.3073 9.9769 13.5223 9.59224Z" fill="#FFB125"/>
<path d="M12.7887 10.692C13.3374 10.5365 13.8557 10.3421 14.3691 10.1038C14.4284 10.0763 14.4879 10.1423 14.4537 10.198C13.9258 11.0588 12.9376 11.8041 11.8968 11.6756C12.2163 11.3695 12.5182 11.0425 12.7887 10.692Z" fill="#FFB125"/>
<path d="M11.897 11.6754C11.9719 11.1478 12.0037 10.6332 11.989 10.1042C11.9872 10.0416 11.9068 10.0158 11.8696 10.0663C11.3438 10.7791 10.9517 11.6449 10.8578 12.5226C11.2234 12.2658 11.5744 11.985 11.897 11.6754Z" fill="#FFB125"/>
<path d="M6.45905 12.5073H9.54106C8.26441 10.8884 8.39763 8.55518 8.39763 8.55518H8.00004H7.60248C7.60248 8.55518 7.7357 10.8884 6.45905 12.5073Z" fill="#FED130"/>
<path d="M8.39759 8.55518H8H7.60244C7.60244 8.55518 7.62306 8.91743 7.57 9.45549C7.46888 10.4811 7.72328 11.5156 8.3235 12.3533C8.36075 12.4053 8.39931 12.4566 8.43928 12.5073H9.54102C8.26437 10.8884 8.39759 8.55518 8.39759 8.55518Z" fill="#F7BC14"/>
<path d="M5.67511 4.41773V6.46244C5.67511 7.67216 6.25005 8.80984 7.22401 9.52737C7.68548 9.86734 8.31451 9.86734 8.77597 9.52737C9.74991 8.80984 10.3249 7.67216 10.3249 6.46244V4.41773H5.67511V4.41773Z" fill="#FED130"/>
<path d="M9.2179 4.41773V6.46244C9.2179 7.67216 8.64297 8.80984 7.66903 9.52737C7.59841 9.5794 7.52381 9.6234 7.44653 9.65949C7.87416 9.85927 8.38516 9.81531 8.776 9.52737C9.74993 8.80984 10.3249 7.67216 10.3249 6.46244V4.41773H9.2179V4.41773Z" fill="#F7BC14"/>
<path d="M10.4914 4.73717H5.50859C5.43349 4.73717 5.37262 4.6763 5.37262 4.6012V4.03771C5.37262 3.96261 5.43349 3.90174 5.50859 3.90174H10.4914C10.5665 3.90174 10.6274 3.96261 10.6274 4.03771V4.6012C10.6273 4.6763 10.5665 4.73717 10.4914 4.73717Z" fill="#FFB125"/>
<path d="M10.4914 3.90174H9.52039V4.73717H10.4914C10.5665 4.73717 10.6273 4.6763 10.6273 4.6012V4.03771C10.6273 3.96261 10.5665 3.90174 10.4914 3.90174Z" fill="#FF901D"/>
<path d="M10.6439 13.4954H5.377C5.30066 13.4954 5.24766 13.4194 5.2741 13.3478L5.66522 12.288C5.68112 12.2449 5.72219 12.2163 5.76812 12.2163H10.2527C10.2987 12.2163 10.3397 12.2449 10.3556 12.288L10.7468 13.3478C10.7732 13.4194 10.7202 13.4954 10.6439 13.4954Z" fill="#FFB125"/>
<path d="M10.7468 13.3478L10.3556 12.288C10.3397 12.2449 10.2987 12.2162 10.2527 12.2162H9.18304L9.65514 13.4954H10.6439C10.7202 13.4955 10.7732 13.4194 10.7468 13.3478Z" fill="#FF901D"/>
<path d="M15.6299 7.16244C15.5153 7.09282 15.3713 7.10625 15.2716 7.19604C15.032 7.41191 14.7888 7.61125 14.5381 7.79844C14.5903 7.62435 14.6357 7.45307 14.6747 7.28516C15.1189 7.02963 15.4744 6.61326 15.7071 6.07395C15.9218 5.57623 16.0241 4.9872 15.9951 4.41533C15.9884 4.28098 15.8959 4.16961 15.765 4.1382C15.6339 4.10667 15.5005 4.16408 15.4333 4.28105C15.2707 4.56392 15.0989 4.83161 14.9155 5.08954C14.9132 4.87201 14.9031 4.66076 14.8854 4.45698C14.8853 4.45226 14.8854 4.44758 14.885 4.44283C14.8345 3.76989 14.7104 3.09543 14.5164 2.43821C14.4796 2.31374 14.3489 2.24262 14.2245 2.2794C14.1 2.31615 14.029 2.44683 14.0657 2.5713C14.185 2.97524 14.276 3.38596 14.3388 3.79855C14.1061 3.57555 13.8665 3.36639 13.6149 3.16764C13.5126 3.0868 13.3707 3.08083 13.2619 3.1528C13.1531 3.22468 13.103 3.35736 13.1372 3.48296C13.402 4.45623 13.8443 5.28676 14.4188 5.89395C14.4055 6.06454 14.3862 6.2397 14.3602 6.4191C14.2051 6.14766 14.0399 5.88745 13.8608 5.63407C13.7864 5.52876 13.6532 5.4826 13.5294 5.51907C13.4058 5.55551 13.3192 5.66629 13.3138 5.79479C13.2848 6.48126 13.3529 7.4825 13.8283 8.41231C13.7668 8.56747 13.6986 8.72515 13.6233 8.88487C13.5534 8.58184 13.4705 8.28687 13.3723 7.99472C13.3313 7.873 13.2174 7.79056 13.0889 7.78953C13.0881 7.78953 13.0873 7.78953 13.0865 7.78953C12.9591 7.78953 12.8454 7.86972 12.8029 7.98975C12.4866 8.88275 12.3943 9.81509 12.5386 10.6298C12.434 10.7615 12.3221 10.8934 12.2028 11.0251C12.2252 10.7141 12.2325 10.4069 12.2239 10.0978C12.2204 9.96927 12.1355 9.85709 12.0126 9.81856C11.8901 9.78018 11.7567 9.82368 11.6806 9.92687C11.1185 10.6889 10.7519 11.5545 10.6394 12.3781L10.5761 12.2066C10.5264 12.0718 10.3964 11.9813 10.2528 11.9813H9.46025C9.35266 11.8073 9.25397 11.6203 9.16632 11.4235C9.11354 11.3049 8.97466 11.2516 8.8561 11.3044C8.73754 11.3572 8.68423 11.4961 8.73704 11.6146C8.79313 11.7406 8.85347 11.863 8.91747 11.9813H7.08248C7.45151 11.2979 7.63992 10.5728 7.73573 9.99577C7.8232 10.0111 7.91163 10.0191 8.0001 10.0191C8.0887 10.0191 8.17726 10.0111 8.26488 9.99571C8.2942 10.1729 8.32882 10.3476 8.36941 10.517C8.39523 10.6248 8.49151 10.6973 8.59773 10.6973C8.61585 10.6973 8.63426 10.6952 8.65266 10.6908C8.77888 10.6606 8.85666 10.5337 8.82641 10.4075C8.78251 10.2241 8.74554 10.0344 8.71572 9.84149C8.78444 9.80531 8.85129 9.76381 8.91544 9.71652C9.15741 9.53824 9.37616 9.33446 9.56969 9.11075C10.1637 9.062 10.7338 8.8289 11.1983 8.43362C11.8464 7.88206 12.2181 7.07775 12.2181 6.22695V5.43242C12.2181 5.34057 12.1823 5.25426 12.1173 5.18939C12.0525 5.12473 11.9665 5.0892 11.875 5.0892C11.8747 5.0892 11.8744 5.0892 11.8741 5.0892L10.5599 5.09207V4.96551C10.7318 4.93329 10.8624 4.78229 10.8624 4.60117V4.03767C10.8624 3.83314 10.696 3.66674 10.4915 3.66674H5.50855C5.30402 3.66674 5.13761 3.83314 5.13761 4.03767V4.60117C5.13761 4.78229 5.26821 4.93326 5.44011 4.96551V5.09207L4.12596 5.0892C4.12565 5.0892 4.12537 5.0892 4.12506 5.0892C4.03356 5.0892 3.94752 5.12479 3.88271 5.18939C3.81768 5.25426 3.78187 5.34057 3.78187 5.43242V6.22695C3.78187 7.07775 4.15359 7.88206 4.80174 8.43362C5.2663 8.82894 5.8363 9.062 6.43036 9.11075C6.62392 9.33443 6.84264 9.53828 7.08461 9.71652C7.14879 9.76381 7.21564 9.80534 7.28439 9.84152C7.18967 10.4533 6.98414 11.2624 6.53976 11.9813H5.76808C5.62446 11.9813 5.49452 12.0718 5.44474 12.2066L5.37439 12.3972C5.37021 12.3944 5.36611 12.3915 5.36189 12.3886C5.25114 11.5619 4.8839 10.6921 4.31943 9.92684C4.24334 9.82368 4.10987 9.78018 3.98734 9.81852C3.86452 9.85706 3.77962 9.96924 3.77606 10.0977C3.76746 10.4069 3.77474 10.7141 3.79718 11.0251C3.67787 10.8934 3.56599 10.7614 3.46137 10.6297C3.60571 9.81502 3.51337 8.88268 3.19709 7.98972C3.15431 7.86894 3.03984 7.78847 2.91106 7.78947C2.78247 7.7905 2.66856 7.873 2.62762 7.99472C2.52941 8.28684 2.4465 8.58181 2.37662 8.88481C2.30125 8.72509 2.23306 8.5674 2.17163 8.41225C2.64703 7.48241 2.71506 6.48123 2.68609 5.79476C2.68069 5.66623 2.59406 5.55545 2.4705 5.51901C2.34672 5.48254 2.21353 5.52876 2.13909 5.63398C1.95997 5.88732 1.79472 6.14757 1.63972 6.41904C1.61372 6.23963 1.59441 6.06448 1.58113 5.89385C2.15559 5.2867 2.5979 4.45617 2.86272 3.48286C2.89687 3.35724 2.84675 3.22455 2.73797 3.15271C2.62912 3.0808 2.48725 3.08677 2.38503 3.16755C2.13344 3.3663 1.89378 3.57546 1.66113 3.79845C1.72391 3.38586 1.81491 2.97518 1.93419 2.57121C1.97094 2.44674 1.89985 2.31605 1.77538 2.2793C1.65106 2.24268 1.52025 2.31365 1.4835 2.43812C1.28944 3.09546 1.16541 3.76986 1.11485 4.44273C1.1145 4.44739 1.1146 4.45198 1.1145 4.45661C1.09672 4.66051 1.08663 4.87186 1.08438 5.08945C0.900974 4.83151 0.729193 4.56383 0.566569 4.28095C0.499351 4.16402 0.365945 4.10658 0.234914 4.13811C0.104071 4.16948 0.0115713 4.28083 0.00475887 4.4152C-0.0242098 4.98711 0.0781023 5.57617 0.292789 6.07385C0.525444 6.61316 0.881037 7.02954 1.32516 7.28507C1.36419 7.45297 1.40966 7.62425 1.46182 7.79838C1.2111 7.61116 0.967911 7.41178 0.728256 7.19591C0.6286 7.10616 0.484632 7.09266 0.370007 7.16235C0.255633 7.23185 0.201446 7.36553 0.235102 7.49497C0.490976 8.47884 1.23304 9.55406 2.32691 9.80187C2.41269 9.95034 2.50547 10.1 2.60531 10.2505C2.31169 10.145 2.02153 10.0261 1.72972 9.89062C1.60832 9.83421 1.46685 9.86359 1.37775 9.96356C1.28888 10.0634 1.27607 10.2069 1.34591 10.3208C1.85247 11.1469 2.80803 11.9249 3.86862 11.9249C3.91868 11.9249 3.96902 11.9229 4.01952 11.9194C4.31174 12.1919 4.64315 12.4592 5.00699 12.7149C5.00705 12.7149 5.00708 12.7149 5.00715 12.715C5.07205 12.7606 5.13908 12.8057 5.20708 12.8504L5.25133 12.7305L5.05358 13.2664C5.01458 13.372 5.02974 13.4903 5.09415 13.5827C5.15855 13.6752 5.26424 13.7303 5.37689 13.7303H10.6438C10.7564 13.7303 10.8621 13.6752 10.9265 13.5827C10.9909 13.4903 11.0061 13.372 10.9671 13.2664L10.8095 12.8394C10.8717 12.7983 10.9331 12.7569 10.9927 12.715C10.9927 12.7149 10.9927 12.7149 10.9928 12.7149C11.3567 12.4592 11.688 12.1919 11.9802 11.9194C12.0307 11.923 12.0811 11.9249 12.1311 11.9249C13.1917 11.9249 14.1474 11.1468 14.6539 10.3208C14.7237 10.2069 14.7109 10.0633 14.622 9.96359C14.5329 9.86356 14.3915 9.83421 14.2701 9.89065C13.9783 10.0261 13.6881 10.145 13.3945 10.2505C13.4943 10.1001 13.5871 9.95037 13.6729 9.8019C14.7667 9.55409 15.5088 8.47887 15.7647 7.49497C15.7984 7.3656 15.7442 7.23191 15.6299 7.16244ZM14.8166 6.54185C14.8213 6.51091 14.8259 6.48001 14.8303 6.44926C14.8341 6.42207 14.8377 6.39504 14.8412 6.36804C14.8452 6.3376 14.8491 6.30723 14.8528 6.27701C14.856 6.2501 14.8591 6.22332 14.862 6.1966C14.8654 6.16666 14.8685 6.13682 14.8715 6.10713C14.8742 6.08063 14.8767 6.05423 14.8791 6.02791C14.8818 5.99826 14.8842 5.96876 14.8866 5.93935C14.8876 5.92576 14.889 5.91191 14.89 5.89838C15.1073 5.63226 15.3086 5.35867 15.4977 5.07207C15.4201 5.6357 15.1997 6.20195 14.809 6.59385C14.8117 6.57641 14.814 6.55922 14.8166 6.54185ZM10.5598 6.46244V5.56201L11.7481 5.55942V6.22698C11.7481 6.93982 11.4366 7.61366 10.8936 8.07575C10.6204 8.30822 10.3037 8.47362 9.96706 8.56569C10.3487 7.93894 10.5598 7.2115 10.5598 6.46244ZM5.1063 8.07575C4.56327 7.61363 4.2518 6.93976 4.2518 6.22698V5.55942L5.44008 5.56201V6.46244C5.44008 7.2115 5.65124 7.93897 6.03283 8.56572C5.69624 8.47366 5.37946 8.30819 5.1063 8.07575ZM5.91005 6.46244V4.97211H6.21664C6.34642 4.97211 6.45161 4.86692 6.45161 4.73714C6.45161 4.60736 6.34642 4.50217 6.21664 4.50217H5.60755V4.13667H10.3923V4.50217H7.30992C7.18014 4.50217 7.07495 4.60736 7.07495 4.73714C7.07495 4.86692 7.18014 4.97211 7.30992 4.97211H10.0898V6.46244C10.0898 7.59275 9.54657 8.66781 8.63654 9.33818C8.25579 9.61868 7.74414 9.61868 7.36329 9.33818C6.45333 8.66778 5.91005 7.59275 5.91005 6.46244ZM0.502194 5.07207C0.69135 5.3587 0.89263 5.63229 1.10988 5.89838C1.11091 5.9122 1.11232 5.92632 1.11341 5.9402C1.11569 5.96926 1.11816 5.99841 1.12082 6.02773C1.12319 6.0541 1.12569 6.08054 1.12838 6.1071C1.13135 6.13685 1.13457 6.16676 1.13788 6.19673C1.14085 6.22338 1.14388 6.2501 1.14713 6.27698C1.15079 6.30726 1.15469 6.33769 1.15869 6.36823C1.16222 6.3951 1.16582 6.42201 1.1696 6.44907C1.17397 6.4801 1.17863 6.51132 1.18335 6.54257C1.18594 6.55973 1.18819 6.57666 1.19091 6.59388C0.800193 6.20191 0.579819 5.63573 0.502194 5.07207ZM2.21319 6.37313C2.18575 6.86785 2.09341 7.33935 1.94184 7.76047C1.93791 7.74781 1.93388 7.73513 1.92997 7.72247C1.92213 7.69688 1.91441 7.67138 1.90685 7.64591C1.89922 7.62022 1.89175 7.59463 1.88441 7.5691C1.87713 7.54372 1.86997 7.51841 1.863 7.49316C1.85597 7.46775 1.8491 7.44241 1.84238 7.41716C1.83569 7.39207 1.82916 7.36707 1.82278 7.34213C1.81638 7.31707 1.81013 7.29213 1.80403 7.26722C1.79794 7.24232 1.79194 7.2175 1.78616 7.19278C1.78344 7.18113 1.78085 7.16957 1.77819 7.15794C1.9141 6.88372 2.05816 6.62372 2.21319 6.37313ZM1.55475 5.07101C1.5551 5.04382 1.5556 5.01673 1.55622 4.98973C1.55685 4.96232 1.5576 4.93501 1.55847 4.90783C1.55935 4.88108 1.56035 4.85442 1.5615 4.82789C1.56266 4.80098 1.56394 4.7742 1.56535 4.74751C1.56672 4.72126 1.56825 4.69517 1.56991 4.66917C1.5716 4.64255 1.57341 4.61608 1.57535 4.5897C1.57628 4.57695 1.57738 4.56433 1.57838 4.55161C1.79169 4.32233 2.00894 4.10898 2.23441 3.90761C2.05531 4.39261 1.82591 4.82667 1.5541 5.19517C1.5541 5.18139 1.554 5.16761 1.55407 5.15389C1.55416 5.12617 1.55441 5.09851 1.55475 5.07101ZM0.903505 7.96138C1.16769 8.17272 1.43882 8.36891 1.72206 8.55381C1.72691 8.56619 1.73219 8.57869 1.7371 8.59106C1.74772 8.61781 1.75853 8.64465 1.76953 8.67153C1.77941 8.69569 1.78944 8.71984 1.79963 8.74409C1.81103 8.77115 1.82266 8.79831 1.83444 8.8255C1.84497 8.84984 1.85563 8.87418 1.86647 8.89862C1.8786 8.92587 1.89094 8.95322 1.90344 8.98056C1.91466 9.00515 1.92594 9.02975 1.93747 9.0544C1.95028 9.08181 1.96338 9.10928 1.97653 9.13678C1.98391 9.15218 1.99094 9.1675 1.99844 9.18293C1.51594 8.92875 1.14235 8.46434 0.903505 7.96138ZM2.91247 8.67634C3.02862 9.15131 3.07625 9.62621 3.05287 10.0736C3.04556 10.0629 3.03815 10.0521 3.0309 10.0414C3.01615 10.0195 3.00159 9.99762 2.98715 9.97577C2.97237 9.9534 2.95775 9.93102 2.94328 9.90865C2.92906 9.88668 2.915 9.86474 2.90109 9.84284C2.88693 9.82049 2.87294 9.79821 2.85912 9.7759C2.84569 9.75424 2.83237 9.73259 2.81922 9.71096C2.8055 9.68834 2.79194 9.66578 2.77856 9.64324C2.76609 9.62228 2.75378 9.60131 2.74162 9.5804C2.73534 9.56959 2.72925 9.55881 2.72306 9.54799C2.77387 9.24781 2.83659 8.95903 2.91247 8.67634ZM2.11906 10.5697C2.433 10.6942 2.7489 10.8024 3.07293 10.8967C3.08084 10.9067 3.08918 10.9167 3.09718 10.9268C3.11597 10.9504 3.13493 10.974 3.15415 10.9976C3.17025 11.0173 3.18647 11.0371 3.20287 11.0568C3.22215 11.08 3.24165 11.1032 3.26134 11.1264C3.27831 11.1464 3.29534 11.1663 3.31262 11.1863C3.33262 11.2095 3.35293 11.2326 3.37334 11.2557C3.39084 11.2755 3.4084 11.2953 3.42621 11.3151C3.44737 11.3386 3.46884 11.3621 3.4904 11.3856C3.50143 11.3976 3.51206 11.4096 3.52321 11.4216C2.98672 11.3174 2.49369 10.9811 2.11906 10.5697ZM4.77152 11.9496C4.75046 11.9326 4.72958 11.9155 4.70887 11.8985C4.68808 11.8814 4.66746 11.8642 4.64699 11.8471C4.62624 11.8297 4.60568 11.8123 4.58527 11.7948C4.5653 11.7777 4.54549 11.7606 4.52583 11.7434C4.50574 11.7259 4.4858 11.7083 4.46605 11.6907C4.44677 11.6735 4.42765 11.6563 4.40871 11.6391C4.38937 11.6215 4.37018 11.6039 4.35121 11.5863C4.34218 11.5779 4.33334 11.5695 4.32437 11.561C4.2838 11.2575 4.25843 10.9614 4.24796 10.6671C4.50068 11.091 4.68927 11.5355 4.80296 11.9747C4.79249 11.9663 4.78193 11.958 4.77152 11.9496ZM5.55674 13.2604L5.85539 12.4512H6.66811C6.66826 12.4512 6.66839 12.4512 6.66855 12.4512C6.6687 12.4512 6.66889 12.4512 6.66905 12.4512H9.33088C9.33103 12.4512 9.33122 12.4512 9.33138 12.4512C9.33153 12.4512 9.33166 12.4512 9.33182 12.4512H10.1654L10.4641 13.2604H5.55674ZM11.6755 11.561C11.6663 11.5697 11.6573 11.5783 11.648 11.5869C11.6294 11.6041 11.6107 11.6213 11.5918 11.6385C11.5725 11.656 11.5531 11.6735 11.5335 11.691C11.5139 11.7085 11.4942 11.7258 11.4743 11.7432C11.4545 11.7605 11.4346 11.7777 11.4145 11.7949C11.3942 11.8122 11.3737 11.8296 11.353 11.847C11.3325 11.8642 11.3118 11.8814 11.2909 11.8985C11.2702 11.9156 11.2494 11.9325 11.2284 11.9495C11.218 11.9579 11.2074 11.9663 11.1969 11.9747C11.3106 11.5355 11.4992 11.091 11.7519 10.667C11.7415 10.9613 11.7161 11.2574 11.6755 11.561ZM13.0874 8.67634C13.1633 8.95903 13.226 9.24778 13.2768 9.54803C13.2708 9.55856 13.2649 9.56906 13.2588 9.57959C13.2464 9.60093 13.2338 9.62231 13.2211 9.64374C13.2078 9.66612 13.1944 9.68853 13.1807 9.71096C13.1676 9.73249 13.1544 9.75409 13.141 9.77568C13.127 9.79821 13.1129 9.82074 13.0986 9.84331C13.0849 9.86487 13.071 9.88646 13.0571 9.90809C13.0424 9.93081 13.0275 9.95352 13.0125 9.97627C12.9982 9.9979 12.9837 10.0196 12.9691 10.0412C12.9619 10.052 12.9544 10.0628 12.9471 10.0737C12.9236 9.62624 12.9713 9.15131 13.0874 8.67634ZM13.8809 10.5696C13.5062 10.9812 13.0132 11.3175 12.4767 11.4217C12.4888 11.4086 12.5004 11.3955 12.5123 11.3825C12.5324 11.3606 12.5524 11.3387 12.5721 11.3168C12.5911 11.2957 12.6098 11.2746 12.6284 11.2535C12.6477 11.2316 12.667 11.2097 12.6859 11.1878C12.7042 11.1667 12.7222 11.1456 12.7401 11.1244C12.7588 11.1025 12.7773 11.0805 12.7955 11.0585C12.813 11.0375 12.8302 11.0165 12.8474 10.9955C12.8654 10.9733 12.8833 10.9511 12.9009 10.929C12.9095 10.9182 12.9185 10.9074 12.9269 10.8967C13.2509 10.8024 13.5669 10.6941 13.8809 10.5696ZM13.7655 3.90764C13.991 4.10898 14.2082 4.32236 14.4215 4.55164C14.4225 4.56458 14.4236 4.57745 14.4246 4.59045C14.4265 4.61645 14.4283 4.64258 14.43 4.66883C14.4316 4.69495 14.4332 4.72117 14.4346 4.74751C14.436 4.77417 14.4373 4.80095 14.4384 4.82786C14.4395 4.85439 14.4406 4.88101 14.4415 4.90776C14.4423 4.93492 14.4431 4.96217 14.4437 4.98958C14.4443 5.01658 14.4448 5.04367 14.4452 5.07086C14.4455 5.09854 14.4458 5.12632 14.4459 5.15423C14.4459 5.16782 14.4458 5.18151 14.4458 5.19517C14.174 4.8267 13.9446 4.39261 13.7655 3.90764ZM13.7867 6.37313C13.9418 6.62372 14.0859 6.88379 14.2218 7.15797C14.2191 7.1696 14.2165 7.18116 14.2138 7.19282C14.208 7.21754 14.202 7.24232 14.1959 7.26719C14.1898 7.29216 14.1835 7.31719 14.1771 7.34232C14.1708 7.36713 14.1642 7.392 14.1576 7.41694C14.1508 7.44238 14.1439 7.46791 14.1368 7.4935C14.1299 7.5185 14.1228 7.5436 14.1156 7.56875C14.1082 7.5945 14.1007 7.62035 14.093 7.64622C14.0855 7.67153 14.0778 7.69694 14.07 7.72238C14.0661 7.73503 14.062 7.74778 14.0581 7.76047C13.9065 7.33935 13.8142 6.86788 13.7867 6.37313ZM14.0015 9.18296C14.009 9.16759 14.0159 9.15234 14.0233 9.13703C14.0365 9.10934 14.0497 9.08168 14.0626 9.05409C14.074 9.02975 14.0851 9.00547 14.0962 8.98122C14.1088 8.9535 14.1213 8.92584 14.1336 8.89825C14.1443 8.87409 14.1548 8.85 14.1653 8.82593C14.1771 8.79856 14.1888 8.77122 14.2003 8.74394C14.2105 8.71978 14.2204 8.69572 14.2303 8.67165C14.2413 8.64472 14.2522 8.61784 14.2628 8.59106C14.2677 8.57869 14.273 8.56619 14.2778 8.55384C14.561 8.36894 14.8321 8.17278 15.0964 7.96141C14.8575 8.46431 14.484 8.92875 14.0015 9.18296Z" fill="black"/>
</g>
<defs>
<clipPath id="clip0">
<rect width="16" height="16" fill="white"/>
</clipPath>
</defs>
</svg>
